PathFileType	4	(X/Y/Z)	/Users/itak/Documents/Research/Walk-IL/dataset/trc/00243_00009.trc
DataRate	CameraRate	NumFrames	NumMarkers	Units	OrigDataRate	OrigDataStartFrame	OrigNumFrames
100.000000	100.000000	4	53	mm	100.000000	516	827
Frame#	Time	RPSI			LPSI			L3			STRN			T10			C7			CLAV			RBAK			LBAK			LSHO			LUPA			LAEL			LAOL			LWTS			LWPS			LFRA			LIFD			LHPS			LHTS			RSHO			RUPA			RAEL			RAOL			RWTS			RWPS			RFRA			RIFD			RHTS			RHPS			RBHD			LFHD			RFHD			LBHD			LHIP			RHIP			RASI			LASI			LKNE			LTHI			LANK			LTIP			LTOE			LMT1			LHEE			RKNE			RTHI			RANK			RTIP			RTOE			RMT1			RMT5			RHEE			LMT5			
		X1	Y1	Z1	X2	Y2	Z2	X3	Y3	Z3	X4	Y4	Z4	X5	Y5	Z5	X6	Y6	Z6	X7	Y7	Z7	X8	Y8	Z8	X9	Y9	Z9	X10	Y10	Z10	X11	Y11	Z11	X12	Y12	Z12	X13	Y13	Z13	X14	Y14	Z14	X15	Y15	Z15	X16	Y16	Z16	X17	Y17	Z17	X18	Y18	Z18	X19	Y19	Z19	X20	Y20	Z20	X21	Y21	Z21	X22	Y22	Z22	X23	Y23	Z23	X24	Y24	Z24	X25	Y25	Z25	X26	Y26	Z26	X27	Y27	Z27	X28	Y28	Z28	X29	Y29	Z29	X30	Y30	Z30	X31	Y31	Z31	X32	Y32	Z32	X33	Y33	Z33	X34	Y34	Z34	X35	Y35	Z35	X36	Y36	Z36	X37	Y37	Z37	X38	Y38	Z38	X39	Y39	Z39	X40	Y40	Z40	X41	Y41	Z41	X42	Y42	Z42	X43	Y43	Z43	X44	Y44	Z44	X45	Y45	Z45	X46	Y46	Z46	X47	Y47	Z47	X48	Y48	Z48	X49	Y49	Z49	X50	Y50	Z50	X51	Y51	Z51	X52	Y52	Z52	X53	Y53	Z53	

517	5.16	213.5159301757812	1033.32080078125	-367.2804870605469	301.8758850097656	1042.760009765625	-447.7559204101562	273.1356506347656	1128.381225585938	-422.2651977539062	459.9974670410156	1290.0595703125	-232.1788635253906	281.7387390136719	1254.017944335938	-418.8963317871094	351.6929321289062	1508.563110351562	-366.387939453125	452.5986938476562	1409.934814453125	-246.0631866455078	232.8095245361328	1381.90087890625	-377.8519592285156	419.0893249511719	1467.659423828125	-457.5680847167969	517.4119262695312	1459.4697265625	-424.2833557128906	563.2830200195312	1344.259887695312	-492.4502258300781	622.3150024414062	1140.228393554688	-477.9588317871094	546.598876953125	1107.037109375	-506.7204284667969	660.2476806640625	949.3953247070312	-312.1817016601562	716.341064453125	924.6940307617188	-370.1673583984375	662.95703125	1044.535888671875	-441.0805969238281	716.556396484375	771.317138671875	-251.0516967773438	741.6866455078125	850.43212890625	-328.3247985839844	717.669677734375	869.2973022460938	-266.87451171875	263.0834655761719	1472.08642578125	-209.6037292480469	194.1492156982422	1412.77685546875	-181.1599273681641	121.83154296875	1137.513671875	-186.9439849853516	164.9771728515625	1129.872924804688	-270.9684753417969	238.8260955810547	921.4049072265625	-111.4889144897461	154.9251251220703	908.844970703125	-108.2155609130859	126.2310028076172	1068.460571289062	-158.5226287841797	247.9453582763672	726.7035522460938	-94.93299102783203	250.0505065917969	801.8509521484375	-68.7947998046875	178.1304473876953	802.7571411132812	-75.69368743896484	375.1191711425781	1670.947265625	-297.0450439453125	557.829833984375	1659.552856445312	-161.1015014648438	470.9023132324219	1663.47802734375	-113.0830230712891	513.9644775390625	1660.777709960938	-320.116943359375	472.4577941894531	980.4302368164062	-474.4296264648438	204.3377227783203	993.1876220703125	-222.7095489501953	298.6103210449219	1034.3115234375	-179.1362152099609	508.5128784179688	1015.772521972656	-365.3922729492188	442.8093566894531	495.0891723632812	-422.624755859375	467.4131164550781	639.3045654296875	-440.8900451660156	315.0314636230469	32.65197372436523	-491.5542907714844	382.3760681152344	274.8226318359375	-467.9861755371094	452.2386779785156	37.62149810791016	-315.5042114257812	372.3417663574219	35.73170471191406	-323.5179443359375	234.8424987792969	44.95468139648438	-487.4278259277344	353.4844360351562	527.9442138671875	-114.2314529418945	261.7896728515625	785.2236938476562	-142.7970275878906	409.8556823730469	34.55571746826172	-128.9099273681641	391.0453796386719	412.8503112792969	-103.1052398681641	558.6258544921875	101.1398315429688	3.6069655418396	563.5585327148438	81.79585266113281	-63.94470977783203	454.0927734375	57.42506790161133	-28.8739185333252	418.9519348144531	25.11843872070312	-212.0609893798828	426.8705139160156	31.8504467010498	-429.3309631347656	
518	5.17	218.5277709960938	1032.29931640625	-364.5218200683594	307.5321350097656	1041.843872070312	-444.2256164550781	278.4215393066406	1127.486572265625	-419.1230163574219	463.5376892089844	1289.410400390625	-227.3718872070312	286.9190979003906	1253.140869140625	-415.6100463867188	356.1965942382812	1507.781616210938	-362.5419921875	456.1004638671875	1409.266845703125	-241.3394012451172	237.5025177001953	1380.965087890625	-375.0435485839844	424.3768005371094	1466.932495117188	-453.1753234863281	522.4095458984375	1458.804077148438	-418.9891967773438	568.9069213867188	1343.580810546875	-486.6396789550781	627.8260498046875	1139.55908203125	-471.493408203125	552.44775390625	1106.393310546875	-501.0646362304688	663.9402465820312	948.7210083007812	-305.3106994628906	720.5985107421875	923.9454345703125	-362.7151489257812	667.97900390625	1043.751098632812	-434.123046875	719.4400634765625	770.6526489257812	-243.4684295654297	745.47314453125	849.7227172851562	-320.5650634765625	720.81689453125	868.6293334960938	-259.3660888671875	266.2442932128906	1471.177490234375	-206.5314178466797	197.0357055664062	1411.849487304688	-178.7018280029297	124.7018814086914	1136.635620117188	-185.3819732666016	168.966064453125	1128.979248046875	-268.8970642089844	239.8832092285156	919.6522216796875	-109.4906997680664	155.8669128417969	907.564697265625	-107.0130920410156	128.5438690185547	1067.50927734375	-157.1022491455078	247.5928802490234	724.8080444335938	-93.83734893798828	249.9637603759766	799.7998657226562	-67.28398895263672	178.1444396972656	801.1926879882812	-74.77642059326172	378.8961181640625	1670.23291015625	-292.9371032714844	560.4624633789062	1658.865112304688	-155.5101013183594	473.0245056152344	1662.754638671875	-108.2762832641602	517.91357421875	1660.144653320312	-314.8605041503906	478.3208312988281	979.7105712890625	-469.6984558105469	208.3607940673828	992.1925048828125	-219.9776763916016	302.1935119628906	1033.435302734375	-175.7480621337891	513.6925048828125	1015.141418457031	-360.3055725097656	444.5728759765625	494.5780029296875	-421.0657958984375	470.6034851074219	638.705078125	-438.05810546875	315.0614318847656	32.77124404907227	-491.5351867675781	383.2082824707031	274.9151611328125	-467.5001831054688	452.2338562011719	37.61093139648438	-315.4984741210938	372.3805236816406	35.76363754272461	-323.5494079589844	234.9183807373047	45.33974075317383	-487.4574890136719	357.7557067871094	527.203369140625	-110.8230514526367	265.3150634765625	784.4490966796875	-139.5756530761719	423.5906677246094	34.70781326293945	-119.5799026489258	396.7191772460938	412.9980773925781	-98.38660430908203	567.9713745117188	103.9376373291016	16.33969116210938	574.794677734375	84.78412628173828	-51.03835678100586	465.0543518066406	58.41468811035156	-18.62458038330078	434.9787902832031	25.24008369445801	-202.4228363037109	426.8775939941406	31.83401679992676	-429.3378601074219	
519	5.18	223.5879058837891	1031.204833984375	-361.6069641113281	313.21923828125	1040.874389648438	-440.5438232421875	283.7248840332031	1126.508544921875	-415.8346557617188	467.0582580566406	1288.730224609375	-222.4737396240234	292.0562438964844	1252.188842773438	-412.2027282714844	360.6507873535156	1506.948364257812	-358.6163635253906	459.557861328125	1408.565551757812	-236.5393218994141	242.1619415283203	1379.939331054688	-372.1312561035156	429.5693054199219	1466.144897460938	-448.6950988769531	527.3314208984375	1458.091430664062	-413.6225280761719	574.427734375	1342.853515625	-480.781494140625	633.1763305664062	1138.817993164062	-465.0656127929688	558.1331787109375	1105.721557617188	-495.4662475585938	667.38330078125	947.8264770507812	-298.6410217285156	724.5914306640625	922.9998168945312	-355.4777526855469	672.8180541992188	1042.874267578125	-427.2918701171875	721.9481201171875	769.6776123046875	-236.2613830566406	748.9481201171875	848.7634887695312	-313.0877380371094	723.6575317382812	867.673583984375	-252.1344299316406	269.3529357910156	1470.205810546875	-203.3880462646484	199.8856811523438	1410.854736328125	-176.1531066894531	127.572151184082	1135.684692382812	-183.7142333984375	172.9844512939453	1128.002563476562	-266.714111328125	240.8835601806641	917.8286743164062	-107.3884582519531	156.7908630371094	906.2339477539062	-105.6949081420898	130.8592834472656	1066.489379882812	-155.5898895263672	247.1702575683594	722.8560791015625	-92.63534545898438	249.8226776123047	797.6860961914062	-65.66307830810547	178.1209259033203	799.5872192382812	-73.73805236816406	382.5869750976562	1669.468139648438	-288.7565002441406	563.0142822265625	1658.162719726562	-149.8889923095703	475.08642578125	1662.006958007812	-103.4132690429688	521.7683715820312	1659.47998046875	-309.5516357421875	484.1966552734375	978.9454956054688	-464.8251953125	212.4736175537109	991.110107421875	-217.0836486816406	305.8413696289062	1032.491333007812	-172.2286682128906	518.9307250976562	1014.479431152344	-355.0845031738281	446.3197937011719	494.0951843261719	-419.503173828125	473.7803344726562	638.0934448242188	-435.2337646484375	315.1004943847656	32.90251541137695	-491.5252990722656	384.0473937988281	275.0462341308594	-467.0391235351562	452.2274780273438	37.60278701782227	-315.4967651367188	372.4259948730469	35.81146240234375	-323.5956115722656	235.0201263427734	45.76634979248047	-487.5030517578125	362.1285095214844	526.3131713867188	-107.4951171875	268.93994140625	783.52783203125	-136.2779235839844	436.6850891113281	34.89596939086914	-110.7104644775391	402.2991027832031	412.9937133789062	-93.8492431640625	576.4150390625	106.5166931152344	28.75592422485352	585.2044067382812	87.62176513671875	-38.41045379638672	475.2039184570312	59.31609725952148	-8.823451995849609	450.4670104980469	25.47225189208984	-193.1926422119141	426.88330078125	31.81152534484863	-429.3453369140625	
520	5.19	228.6953430175781	1030.039794921875	-358.5299682617188	318.9342041015625	1039.855102539062	-436.709228515625	289.0497741699219	1125.44482421875	-412.39208984375	470.5614929199219	1288.016357421875	-217.4814453125	297.1369934082031	1251.160888671875	-408.6746520996094	365.0518493652344	1506.057983398438	-354.6089477539062	462.9720153808594	1407.828125	-231.6612091064453	246.7929992675781	1378.819946289062	-369.1134338378906	434.6724243164062	1465.29638671875	-444.1260681152344	532.1805419921875	1457.329223632812	-408.1834716796875	579.84765625	1342.075317382812	-474.878173828125	638.3698120117188	1138.001831054688	-458.6804809570312	563.6570434570312	1105.017700195312	-489.9257202148438	670.5924072265625	946.7130737304688	-292.1762084960938	728.3331298828125	921.856689453125	-348.4612426757812	677.4804077148438	1041.902221679688	-420.5938110351562	724.101318359375	768.395751953125	-229.4370880126953	752.1256713867188	847.5514526367188	-305.8976745605469	726.2075805664062	866.4298706054688	-245.1860504150391	272.4120178222656	1469.16796875	-200.1706237792969	202.7032623291016	1409.788452148438	-173.5140533447266	130.4499053955078	1134.654907226562	-181.9410858154297	177.0402221679688	1126.932739257812	-264.4141540527344	241.8438568115234	915.9365234375	-105.1710891723633	157.7124938964844	904.8505859375	-104.2598419189453	133.1862640380859	1065.395263671875	-153.9873046875	246.7025299072266	720.8505249023438	-91.31267547607422	249.6448516845703	795.5132446289062	-63.91989135742188	178.0735931396484	797.9398193359375	-72.57286834716797	386.1907958984375	1668.649780273438	-284.5045166015625	565.48193359375	1657.449340820312	-144.2339477539062	477.0859375	1661.23681640625	-98.49451446533203	525.529052734375	1658.782592773438	-304.1897583007812	490.0827941894531	978.1329956054688	-459.8115844726562	216.6729431152344	989.9376220703125	-214.0245513916016	309.5599975585938	1031.475830078125	-168.5702362060547	524.2130737304688	1013.778503417969	-349.7398376464844	448.076416015625	493.6377868652344	-417.9078674316406	476.9598083496094	637.4660034179688	-432.3969421386719	315.1510314941406	33.04792404174805	-491.5213928222656	384.908935546875	275.2096862792969	-466.5811462402344	452.2184448242188	37.59706878662109	-315.4990539550781	372.4786071777344	35.87484359741211	-323.6549377441406	235.1480560302734	46.23886108398438	-487.5647583007812	366.5998840332031	525.2811279296875	-104.2379989624023	272.6640625	782.45361328125	-132.9124908447266	449.132080078125	35.06572341918945	-102.2948608398438	407.8001403808594	412.8240661621094	-89.47565460205078	584.0225219726562	108.863410949707	40.76133728027344	594.8165283203125	90.26351928710938	-26.15198135375977	484.5894775390625	60.10365676879883	0.5027761459350586	465.3573303222656	25.73919868469238	-184.3623962402344	426.8880615234375	31.78278541564941	-429.3533630371094	
